<svg width="44" height="45" viewBox="0 0 44 45" fill="none" xmlns="http://www.w3.org/2000/svg">
<path d="M18.6992 8.15L20.5326 9.8L24.1992 6.5" stroke="#ED1C24" stroke-miterlimit="10" stroke-linecap="round" stroke-linejoin="round"/>
<path d="M16.7977 13.1C14.6553 10.6494 13.7371 7.27975 14.6553 3.91013C14.6553 3.75696 14.6553 3.75696 14.8083 3.6038C17.4099 3.75696 20.0114 2.83797 22.0008 1" stroke="#233253" stroke-miterlimit="10" stroke-linecap="round" stroke-linejoin="round"/>
<path d="M22 1C23.7261 2.64321 25.9832 3.53951 28.2403 3.53951C29.1697 6.97531 28.2403 10.7099 26.116 13.1" stroke="#233253" stroke-miterlimit="10" stroke-linecap="round" stroke-linejoin="round"/>
<path d="M24.5659 26.9111C27.806 26.9111 30.4326 24.2845 30.4326 21.0444C30.4326 17.8043 27.806 15.1777 24.5659 15.1777C21.3258 15.1777 18.6992 17.8043 18.6992 21.0444C18.6992 24.2845 21.3258 26.9111 24.5659 26.9111Z" fill="#69D2FF"/>
<path d="M21.2656 26.9111C24.5057 26.9111 27.1323 24.2845 27.1323 21.0444C27.1323 17.8043 24.5057 15.1777 21.2656 15.1777C18.0255 15.1777 15.3989 17.8043 15.3989 21.0444C15.3989 24.2845 18.0255 26.9111 21.2656 26.9111Z" stroke="#233253" stroke-miterlimit="10" stroke-linecap="round" stroke-linejoin="round"/>
<path d="M15.8896 41.5788V38.6455C15.8896 35.4677 18.4563 32.7788 21.7563 32.7788H27.623C30.8008 32.7788 33.4896 35.3455 33.4896 38.6455V41.5788" fill="#69D2FF"/>
<path d="M12.5889 41.5788V38.6455C12.5889 35.4677 15.1555 32.7788 18.4555 32.7788H24.3222C27.5 32.7788 30.1889 35.3455 30.1889 38.6455V41.5788" stroke="#233253" stroke-miterlimit="10" stroke-linecap="round" stroke-linejoin="round"/>
<path d="M31.5342 15.4236C34.712 16.2791 36.5453 19.4569 35.6897 22.5125C35.2008 24.5902 33.4897 26.1791 31.5342 26.668" stroke="#233253" stroke-miterlimit="10" stroke-linecap="round" stroke-linejoin="round"/>
<path d="M38.8658 41.5802V38.6469C38.8658 35.958 37.0325 33.6358 34.4658 33.0247" stroke="#233253" stroke-miterlimit="10" stroke-linecap="round" stroke-linejoin="round"/>
<path d="M12.4672 26.7879C10.3894 26.299 8.80053 24.5879 8.31165 22.6323C7.45609 19.4546 9.41164 16.2768 12.4672 15.5435" stroke="#233253" stroke-miterlimit="10" stroke-linecap="round" stroke-linejoin="round"/>
<path d="M9.53232 33.1445C6.96566 33.7556 5.13232 36.0779 5.13232 38.7668V41.7001" stroke="#233253" stroke-miterlimit="10" stroke-linecap="round" stroke-linejoin="round"/>
<line x1="4.89893" y1="42.2976" x2="39.0989" y2="42.2976" stroke="#233253" stroke-miterlimit="10" stroke-linecap="round"/>
</svg>
