<svg width="28" height="28" viewBox="0 0 28 28" fill="none" xmlns="http://www.w3.org/2000/svg">
<path fill-rule="evenodd" clip-rule="evenodd" d="M20.7757 0.137636C20.1194 -0.185021 19.3264 0.0884168 19.0093 0.739198L17.0678 4.6931C17.0186 4.79701 17.0077 4.91732 17.046 5.03217C17.0843 5.14154 17.1663 5.23451 17.2702 5.28373L18.8507 6.06029C18.9108 6.0931 18.9819 6.10404 19.0421 6.10404C19.2061 6.10404 19.3593 6.01107 19.4358 5.85795L21.3772 1.90404C21.6999 1.24779 21.4264 0.454823 20.7757 0.137636Z" fill="#808285"/>
<path fill-rule="evenodd" clip-rule="evenodd" d="M9.0515 0.738206C8.72885 0.0819555 7.93588 -0.186013 7.2851 0.136643C6.63432 0.459299 6.36088 1.25227 6.68353 1.90305L8.62494 5.85696C8.7015 6.01555 8.8601 6.10305 9.01869 6.10305C9.08431 6.10305 9.14994 6.08664 9.2101 6.0593L10.7906 5.28274C10.8945 5.23352 10.9765 5.14055 11.0148 5.03117C11.0531 4.9218 11.0476 4.80149 10.9929 4.69211L9.0515 0.738206Z" fill="#808285"/>
<path fill-rule="evenodd" clip-rule="evenodd" d="M24.8176 11.707C23.7238 11.707 22.8379 12.593 22.8379 13.6867V20.293C22.8379 21.3867 23.7293 22.2727 24.8176 22.2727C25.9113 22.2727 26.7973 21.3813 26.7973 20.293V13.6867C26.7973 12.5984 25.9059 11.707 24.8176 11.707Z" fill="#808285"/>
<path fill-rule="evenodd" clip-rule="evenodd" d="M21.5141 11.707H6.54063C6.3 11.707 6.09766 11.9039 6.09766 12.15V22.7156C6.09766 22.9562 6.29453 23.1586 6.54063 23.1586H8.30156V26.0187C8.30156 27.1125 9.19297 27.9984 10.2813 27.9984C11.375 27.9984 12.2609 27.107 12.2609 26.0187V23.1586H15.7828V26.0187C15.7828 27.1125 16.6742 27.9984 17.7625 27.9984C18.8563 27.9984 19.7422 27.107 19.7422 26.0187V23.1586H21.5031C21.7438 23.1586 21.9461 22.9617 21.9461 22.7156V12.1445C21.9516 11.9039 21.7547 11.707 21.5141 11.707Z" fill="#808285"/>
<path fill-rule="evenodd" clip-rule="evenodd" d="M7.42109 22.7172V12.1461C7.42109 11.9055 7.61797 11.7031 7.86406 11.7031H6.54062C6.3 11.7031 6.09766 11.9 6.09766 12.1461V22.7117C6.09766 22.9523 6.29453 23.1547 6.54062 23.1547H7.86406C7.61797 23.1547 7.42109 22.9578 7.42109 22.7172Z" fill="white"/>
<path fill-rule="evenodd" clip-rule="evenodd" d="M9.62422 26.013V23.1528H8.30078V26.013C8.30078 27.1067 9.19219 27.9927 10.2805 27.9927C10.5102 27.9927 10.7344 27.9544 10.9422 27.8778C10.1766 27.6044 9.62422 26.8716 9.62422 26.013Z" fill="white"/>
<path fill-rule="evenodd" clip-rule="evenodd" d="M4.63789 11.707C3.54414 11.707 2.6582 12.593 2.6582 13.6867V20.293C2.6582 21.3867 3.54961 22.2727 4.63789 22.2727C5.73164 22.2727 6.61758 21.3813 6.61758 20.293V13.6867C6.62305 12.5984 5.73164 11.707 4.63789 11.707Z" fill="#808285"/>
<path fill-rule="evenodd" clip-rule="evenodd" d="M14.0277 2.46094C9.6582 2.46094 6.10352 6.01562 6.10352 10.3852C6.10352 10.6258 6.30039 10.8281 6.54648 10.8281H21.5199C21.7605 10.8281 21.9629 10.6312 21.9629 10.3852C21.952 6.01562 18.3973 2.46094 14.0277 2.46094ZM11.3863 7.74375C11.3863 8.23047 10.9926 8.62422 10.5059 8.62422C10.0191 8.62422 9.62539 8.23047 9.62539 7.74375C9.62539 7.25703 10.0191 6.86328 10.5059 6.86328C10.9926 6.86328 11.3863 7.2625 11.3863 7.74375ZM17.5496 6.86328C17.0629 6.86328 16.6691 7.25703 16.6691 7.74375C16.6691 8.23047 17.0629 8.62422 17.5496 8.62422C18.0363 8.62422 18.4301 8.23047 18.4301 7.74375C18.4301 7.25703 18.0363 6.86328 17.5496 6.86328Z" fill="#808285"/>
<path fill-rule="evenodd" clip-rule="evenodd" d="M7.86445 10.3852C7.86445 6.31094 10.9543 2.94766 14.9082 2.51016C14.6184 2.47734 14.323 2.46094 14.0277 2.46094C9.6582 2.46094 6.10352 6.01562 6.10352 10.3852C6.10352 10.6258 6.30039 10.8281 6.54648 10.8281H8.30742C8.06133 10.8281 7.86445 10.6312 7.86445 10.3852Z" fill="white"/>
</svg>
