<svg width="28" height="29" viewBox="0 0 28 29" fill="none" xmlns="http://www.w3.org/2000/svg">
<path fill-rule="evenodd" clip-rule="evenodd" d="M18.1675 4.44016C19.0589 3.36282 19.6878 1.89719 19.655 0.404224C19.6495 0.152662 19.4198 -0.033276 19.1738 0.00500529C17.8667 0.207349 16.4011 1.02219 15.4988 2.08313C14.662 3.04563 13.9238 4.54954 13.9784 6.03157C13.9894 6.25579 14.1753 6.43626 14.3995 6.42532C15.8433 6.39251 17.2706 5.52844 18.1675 4.44016Z" fill="#808285"/>
<path fill-rule="evenodd" clip-rule="evenodd" d="M15.105 6.03782C15.0175 3.73548 16.7566 1.04485 19.5784 0.18079C19.4909 0.0604776 19.3378 -0.0106161 19.1738 0.0112589C17.8667 0.213603 16.4011 1.02845 15.4988 2.08938C14.662 3.05188 13.9238 4.55579 13.9784 6.03782C13.9894 6.26204 14.1753 6.44251 14.3995 6.43157C14.6784 6.4261 14.9574 6.38235 15.2363 6.31673C15.1597 6.2511 15.1105 6.15267 15.105 6.03782Z" fill="white"/>
<path fill-rule="evenodd" clip-rule="evenodd" d="M25.14 20.3889C24.2322 19.9349 21.733 18.3545 21.7001 14.8654C21.6728 12.0053 23.5705 10.3428 24.3798 9.76308C24.5712 9.62636 24.615 9.35292 24.4673 9.16698C23.7947 8.31386 23.0126 7.76151 22.258 7.40605C22.1595 7.3623 21.9955 7.28573 21.8587 7.23651C18.0689 5.74355 15.6791 8.02948 14.2298 8.02948C13.1197 8.02948 11.4134 6.77714 9.5978 6.80995C7.2189 6.84276 5.02593 8.19355 3.79546 10.3264C1.91421 13.5967 2.53218 18.0646 4.00327 21.5482C4.04155 21.6357 4.10171 21.7779 4.15093 21.8873C4.57749 22.8443 5.06421 23.7139 5.5728 24.4576C6.74858 26.1584 8.15405 28.0779 10.0025 28.0068C11.7798 27.9357 12.4525 26.8584 14.5962 26.8584C16.74 26.8584 17.347 28.0068 19.2228 27.974C21.1369 27.9357 22.3455 26.2349 23.5158 24.5287C24.5439 23.0248 25.1126 21.5592 25.3423 20.8974C25.4134 20.7006 25.3259 20.4818 25.14 20.3889Z" fill="#808285"/>
<path fill-rule="evenodd" clip-rule="evenodd" d="M6.7106 24.4553C6.19653 23.7115 5.70981 22.842 5.28872 21.885C5.2395 21.7756 5.17935 21.6334 5.14107 21.5459C3.68091 18.0842 3.04653 13.6053 4.93325 10.324C6.06528 8.35527 8.0231 7.05371 10.1942 6.84043C10.0028 6.81855 9.80591 6.80762 9.60903 6.80762C7.23013 6.84043 5.03716 8.19121 3.80669 10.324C1.92544 13.5943 2.54341 18.0623 4.0145 21.5459C4.05278 21.6334 4.11294 21.7756 4.16216 21.885C4.58872 22.842 5.07544 23.7115 5.58403 24.4553C6.75981 26.1561 8.16528 28.0756 10.0137 28.0045C10.1942 27.999 10.3637 27.9771 10.5278 27.9553C8.97466 27.6381 7.74966 25.9592 6.7106 24.4553Z" fill="white"/>
</svg>
