<svg width="22" height="22" viewBox="0 0 22 22" fill="none" xmlns="http://www.w3.org/2000/svg">
<path d="M20.9994 16.0036V19.0204C21.0005 19.3004 20.9432 19.5776 20.831 19.8342C20.7188 20.0908 20.5542 20.3212 20.3478 20.5105C20.1415 20.6998 19.8978 20.844 19.6325 20.9337C19.3672 21.0234 19.0861 21.0567 18.8072 21.0315C15.7128 20.6953 12.7404 19.6379 10.1289 17.9444C7.69921 16.4004 5.63926 14.3405 4.09534 11.9108C2.39586 9.28741 1.33824 6.30058 1.00816 3.19229C0.983033 2.91421 1.01608 2.63395 1.1052 2.36934C1.19432 2.10473 1.33757 1.86158 1.52581 1.65536C1.71405 1.44915 1.94317 1.28439 2.19858 1.17157C2.45398 1.05876 2.73008 1.00036 3.0093 1.0001H6.02608C6.5141 0.995294 6.98722 1.16811 7.35725 1.48634C7.72727 1.80456 7.96896 2.24648 8.03727 2.72972C8.1646 3.69516 8.40074 4.64309 8.74118 5.55544C8.87648 5.91537 8.90576 6.30653 8.82556 6.68259C8.74536 7.05865 8.55903 7.40383 8.28867 7.67725L7.01156 8.95435C8.44308 11.4719 10.5276 13.5564 13.0451 14.9879L14.3222 13.7108C14.5956 13.4404 14.9408 13.2541 15.3169 13.1739C15.6929 13.0937 16.0841 13.123 16.444 13.2583C17.3564 13.5987 18.3043 13.8349 19.2698 13.9622C19.7582 14.0311 20.2044 14.2772 20.5233 14.6536C20.8422 15.0299 21.0116 15.5104 20.9994 16.0036Z" stroke="#ED1C24" stroke-width="1.5" stroke-linecap="round" stroke-linejoin="round"/>
</svg>
