<svg width="21" height="18" viewBox="0 0 21 18" fill="none" xmlns="http://www.w3.org/2000/svg">
<path d="M14.8182 16.5456V14.8183C14.8182 13.9021 14.4543 13.0234 13.8064 12.3756C13.1585 11.7277 12.2799 11.3638 11.3637 11.3638H4.45455C3.53835 11.3638 2.65967 11.7277 2.01182 12.3756C1.36396 13.0234 1 13.9021 1 14.8183V16.5456" stroke="#ED1C24" stroke-width="1.5" stroke-linecap="round" stroke-linejoin="round"/>
<path d="M7.90963 7.90911C9.81753 7.90911 11.3642 6.36245 11.3642 4.45455C11.3642 2.54666 9.81753 1 7.90963 1C6.00173 1 4.45508 2.54666 4.45508 4.45455C4.45508 6.36245 6.00173 7.90911 7.90963 7.90911Z" stroke="#ED1C24" stroke-width="1.5" stroke-linecap="round" stroke-linejoin="round"/>
<path d="M20.0001 16.5456V14.8184C19.9995 14.0529 19.7448 13.3094 19.2758 12.7044C18.8069 12.0995 18.1503 11.6674 17.4092 11.4761" stroke="#ED1C24" stroke-width="1.5" stroke-linecap="round" stroke-linejoin="round"/>
<path d="M13.9551 1.1123C14.6982 1.30257 15.3568 1.73473 15.8271 2.34067C16.2975 2.9466 16.5528 3.69185 16.5528 4.4589C16.5528 5.22596 16.2975 5.9712 15.8271 6.57714C15.3568 7.18308 14.6982 7.61524 13.9551 7.8055" stroke="#ED1C24" stroke-width="1.5" stroke-linecap="round" stroke-linejoin="round"/>
</svg>
