<svg width="17" height="20" viewBox="0 0 17 20" fill="none" xmlns="http://www.w3.org/2000/svg">
<path d="M16 17.875V16C16 15.0054 15.6049 14.0516 14.9017 13.3484C14.1984 12.6451 13.2446 12.25 12.25 12.25H4.75C3.75544 12.25 2.80161 12.6451 2.09835 13.3484C1.39509 14.0516 1 15.0054 1 16V17.875" stroke="#ED1C24" stroke-width="1.5" stroke-linecap="round" stroke-linejoin="round"/>
<path d="M8.30176 12.458L8.99247 12.1657H7.61105L8.30176 12.458ZM6.30176 17.1845L5.61105 16.8922L5.75281 17.6955L6.30176 17.1845ZM8.30176 19.3329L7.75281 19.8439H8.85071L8.30176 19.3329ZM10.3018 17.1845L10.8507 17.6955L10.9925 16.8922L10.3018 17.1845ZM7.61105 12.1657L5.61105 16.8922L6.99247 17.4768L8.99247 12.7503L7.61105 12.1657ZM5.75281 17.6955L7.75281 19.8439L8.85071 18.8219L6.85071 16.6735L5.75281 17.6955ZM8.85071 19.8439L10.8507 17.6955L9.75281 16.6735L7.75281 18.8219L8.85071 19.8439ZM10.9925 16.8922L8.99247 12.1657L7.61105 12.7503L9.61105 17.4768L10.9925 16.8922Z" fill="#ED1C24"/>
<path d="M8.1875 8.5C10.2586 8.5 11.9375 6.82107 11.9375 4.75C11.9375 2.67893 10.2586 1 8.1875 1C6.11643 1 4.4375 2.67893 4.4375 4.75C4.4375 6.82107 6.11643 8.5 8.1875 8.5Z" stroke="#ED1C24" stroke-width="1.5" stroke-linecap="round" stroke-linejoin="round"/>
</svg>
