<svg width="12" height="24" viewBox="0 0 12 24" fill="none" xmlns="http://www.w3.org/2000/svg">
<path fill-rule="evenodd" clip-rule="evenodd" d="M2.93906 12.094V23.4032C2.93906 23.4809 2.96989 23.5553 3.02478 23.6102C3.07967 23.6651 3.15411 23.6959 3.23174 23.6959H7.42686C7.50448 23.6959 7.57893 23.6651 7.63382 23.6102C7.68871 23.5553 7.71954 23.4809 7.71954 23.4032V11.9096H10.7644C10.9173 11.9101 11.0449 11.7927 11.0571 11.6403L11.3498 8.17786C11.3575 8.09562 11.3301 8.01395 11.2744 7.953C11.2186 7.89205 11.1397 7.8575 11.0571 7.85786H7.71954V5.40127C7.71954 5.12467 7.82942 4.8594 8.02501 4.66381C8.2206 4.46823 8.48587 4.35835 8.76247 4.35835H11.1039C11.1816 4.35835 11.256 4.32751 11.3109 4.27262C11.3658 4.21773 11.3966 4.14329 11.3966 4.06566V0.597371C11.3966 0.519746 11.3658 0.445301 11.3109 0.390412C11.256 0.335523 11.1816 0.304688 11.1039 0.304688H7.13906C4.8123 0.304687 2.92594 2.19061 2.9254 4.51737V7.85591H0.825885C0.748261 7.85591 0.673816 7.88674 0.618928 7.94163C0.564039 7.99652 0.533203 8.07096 0.533203 8.14859V11.612C0.533203 11.6896 0.564039 11.7641 0.618928 11.819C0.673816 11.8739 0.748261 11.9047 0.825885 11.9047H2.9254L2.93906 12.094Z" fill="#808285"/>
</svg>
