<svg width="24" height="20" viewBox="0 0 24 20" fill="none" xmlns="http://www.w3.org/2000/svg">
<path fill-rule="evenodd" clip-rule="evenodd" d="M23.2142 2.87969C22.4794 3.19534 21.7073 3.41599 20.9166 3.53627C21.2864 3.47383 21.8327 2.80359 22.0503 2.53237C22.3915 2.12084 22.6511 1.648 22.8152 1.1392C22.8357 1.10017 22.8503 1.04944 22.8152 1.02017C22.7755 1.00285 22.7297 1.00652 22.6932 1.02993C21.8298 1.49056 20.9121 1.84126 19.9615 2.07383C19.8944 2.09518 19.821 2.07579 19.7732 2.02408C19.7001 1.93691 19.6206 1.85537 19.5352 1.78017C19.1406 1.44093 18.6939 1.16751 18.2123 0.970417C17.5692 0.710778 16.876 0.5994 16.184 0.644563C15.5123 0.690594 14.8575 0.875641 14.261 1.18798C13.6632 1.50136 13.1351 1.93284 12.7088 2.45627C12.2681 2.99895 11.9517 3.6317 11.782 4.30993C11.6376 4.95344 11.621 5.61905 11.7332 6.26895C11.7479 6.3792 11.7332 6.39383 11.6357 6.3792C8.02448 6.0111 4.68056 4.30887 2.25811 1.60554C2.14885 1.48066 2.08933 1.48066 1.99958 1.61529C0.999978 3.46178 1.32948 5.74526 2.81031 7.23383C2.99372 7.40749 3.18299 7.58212 3.38689 7.74115C2.75614 7.69278 2.14113 7.52038 1.57714 7.23383C1.46787 7.16456 1.41324 7.20456 1.40348 7.33139C1.39609 7.51078 1.4059 7.69046 1.43275 7.86798C1.65739 9.58631 2.78939 11.0508 4.39568 11.7011C4.58878 11.785 4.7907 11.8468 4.99763 11.8855C4.41318 12.0018 3.81349 12.0203 3.22299 11.9402C3.09324 11.9158 3.04348 11.9802 3.09324 12.1041C3.71116 13.7206 5.12205 14.9019 6.82202 15.226C6.9908 15.2553 7.16055 15.2553 7.32933 15.2953C7.31958 15.3099 7.30982 15.3099 7.30007 15.3246C6.88055 15.9636 5.42885 16.4387 4.75372 16.6748C3.51492 17.1162 2.19543 17.2849 0.885432 17.1694C0.677627 17.1392 0.633725 17.1411 0.578115 17.1694C0.522505 17.1977 0.57031 17.2543 0.637627 17.308C0.901042 17.4826 1.16933 17.6368 1.4425 17.786C2.26416 18.2237 3.13107 18.5704 4.02787 18.8202C8.72126 20.2326 13.8117 19.0436 17.3937 15.6982C20.1332 12.9763 21.0932 9.2231 21.0932 5.46505C21.0932 5.31773 21.2669 5.23676 21.3703 5.15871C22.0628 4.61974 22.6729 3.98243 23.181 3.267C23.2605 3.16326 23.3003 3.03455 23.2932 2.90407V2.88456C23.2991 2.8192 23.3069 2.83773 23.2142 2.87969Z" fill="#808285"/>
</svg>
