<svg width="22" height="22" viewBox="0 0 22 22" fill="none" xmlns="http://www.w3.org/2000/svg">
<path fill-rule="evenodd" clip-rule="evenodd" d="M20.0793 10.6729C20.1583 10.6191 20.2374 10.5654 20.3168 10.5083C20.932 10.0796 21.3351 10.6636 20.9576 11.2217C20.2241 12.1211 18.8282 13.2383 16.6882 14.1167C18.9574 21.8291 11.1628 23.0542 11.2814 19.1001L11.2742 15.3477C11.1073 15.3066 10.93 15.2598 10.7253 15.2114L10.7178 19.1001C10.8364 23.0542 3.04723 21.8291 5.31102 14.1167C3.17125 13.2383 1.77562 12.1211 1.04149 11.2217C0.664414 10.6636 1.06761 10.0791 1.68272 10.5083C1.76561 10.5679 1.84837 10.624 1.93065 10.6802V2.70361C1.93065 1.59717 2.76268 0.703125 3.78648 0.703125H18.2234C19.2473 0.703125 20.0793 1.59717 20.0793 2.70361V10.6729ZM11.2777 13.4658C11.3247 12.8345 11.6777 12.4248 12.6307 12.4727C12.7462 12.4761 12.8703 12.4814 13.0027 12.4873C14.3556 12.5459 16.5635 12.6411 19.092 11.2749V3.60742C19.092 2.28955 18.6632 1.76758 17.4485 1.76758H4.67101C3.3889 1.76758 3.03209 2.20703 3.03209 3.60742V11.3394C5.50865 12.6367 7.66661 12.5444 8.99779 12.4873C9.12999 12.4814 9.25401 12.4761 9.36937 12.4727C9.90502 12.4463 10.2501 12.5645 10.459 12.7847C10.4957 12.8154 10.5339 12.8486 10.5737 12.8862C10.8141 13.1089 11.0483 13.3032 11.2777 13.4658Z" fill="#808285"/>
</svg>
