<svg width="24" height="18" viewBox="0 0 24 18" fill="none" xmlns="http://www.w3.org/2000/svg">
<path fill-rule="evenodd" clip-rule="evenodd" d="M22.4712 2.33496C23.4346 3.29785 23.9758 4.60449 23.9758 5.9668V12.21C23.9758 13.5723 23.4346 14.8789 22.4712 15.8418C21.5078 16.8052 20.2012 17.3462 18.8389 17.3457H5.51782C4.15564 17.3462 2.84912 16.8052 1.88586 15.8418C0.922608 14.8784 0.381592 13.5723 0.381836 12.21V5.9668C0.381592 4.60449 0.922608 3.29785 1.88586 2.33496C2.84912 1.37158 4.15564 0.830567 5.51782 0.831055H18.8389C20.2012 0.830567 21.5078 1.37158 22.4712 2.33496ZM10.2628 12.3174L15.5758 9.40332C15.6851 9.35058 15.762 9.24023 15.772 9.11475C15.7819 8.98926 15.7234 8.86816 15.6189 8.79834L10.2699 5.73096C10.0388 5.59814 9.82385 5.76514 9.82385 6.03125V12.0122C9.82385 12.2749 10.0319 12.4424 10.2628 12.3174Z" fill="#808285"/>
</svg>
