<svg width="52" height="51" viewBox="0 0 52 51" fill="none" xmlns="http://www.w3.org/2000/svg">
<path d="M24 40H20V50H24V40Z" fill="#69D2FF"/>
<path d="M36 36H32V50H36V36Z" fill="#69D2FF"/>
<path d="M49 27H45V50H49V27Z" fill="#69D2FF"/>
<path d="M3.33057 50.0001H50.9764M30.3217 49.8932V32.7967H35.5575V49.8932M18.0335 49.8932V40.597H23.2694V49.8932M42.6098 49.8932V28.7363H47.8456V49.8932" stroke="#233253" stroke-miterlimit="10" stroke-linecap="round" stroke-linejoin="round"/>
<path d="M5.32031 9.53242V10.7078C5.32031 12.7166 6.94448 14.3408 8.95332 14.3408C10.9622 14.3408 12.5863 12.7166 12.5863 10.7078V9.53242C12.5863 7.52358 10.9622 5.89941 8.95332 5.89941C6.94448 5.89941 5.32031 7.52358 5.32031 9.53242Z" stroke="#233253" stroke-miterlimit="10" stroke-linecap="round" stroke-linejoin="round"/>
<path d="M13 16L9 18V47H13L13.477 31.7376L16.977 30.2376L17 20L15.5 17.5L13 16Z" fill="#69D2FF"/>
<path d="M4.39999 31.4181C4.09012 31.5677 3.75888 31.6425 3.41695 31.6425L3.39558 31.6211C2.77583 31.6318 2.17745 31.3861 1.72867 30.948C1.29057 30.5206 1.04481 29.9222 1.04481 29.3024V20.3161C1.04481 20.2092 1.02344 20.081 1.02344 19.9635C1.02344 17.8585 2.71172 16.1488 4.81672 16.1274H6.4302C6.63322 16.1274 6.81487 16.2129 6.95378 16.3518L9.03742 18.4034L11.2065 16.3518C11.3454 16.2129 11.5271 16.1381 11.7194 16.1274H13.2688C13.397 16.1274 13.5252 16.1595 13.6535 16.1702C15.7371 16.3839 17.2544 18.2324 17.0514 20.3161V29.3024C17.0514 30.6167 15.9936 31.6746 14.6899 31.6746C14.348 31.6746 14.0061 31.5998 13.6962 31.4502M4.39999 31.4181L4.79535 44.7213C4.84878 46.0997 6.00279 47.1789 7.3812 47.1362C8.01163 47.1148 8.59932 46.8584 9.0481 46.4203M4.39999 31.4181V21.2564M9.0481 46.4203C10.0312 47.3927 11.6126 47.382 12.5849 46.3989C13.023 45.9501 13.2795 45.3518 13.3009 44.7213L13.6962 31.4502M9.0481 46.4203V31.6746M13.6962 31.4502V21.2564" stroke="#233253" stroke-miterlimit="10" stroke-linecap="round" stroke-linejoin="round"/>
<path d="M35 10C35 5.0349 30.9745 1 25.994 1C21.0134 1 17 5.02282 17 10C17 14.9772 21.0255 19 26.006 19C30.9624 18.9879 34.9879 14.9651 35 10Z" stroke="#233253" stroke-miterlimit="10" stroke-linecap="round" stroke-linejoin="round"/>
<path d="M26.3696 26.1723L32.4603 20.0816L38.1235 25.7449L46.5649 17.3035H40.6879" stroke="#233253" stroke-miterlimit="10" stroke-linecap="round" stroke-linejoin="round"/>
<path d="M46.6708 22.753L46.564 17.3035" stroke="#233253" stroke-miterlimit="10" stroke-linecap="round" stroke-linejoin="round"/>
<path d="M29.5 5.01122H22C22 5.01122 27.3799 4.65746 27.4859 7.92293C27.5654 11.1884 22 10.9979 22 10.9979" stroke="#ED1C24" stroke-miterlimit="10" stroke-linecap="round" stroke-linejoin="round"/>
<path d="M22 8H29.5" stroke="#ED1C24" stroke-miterlimit="10" stroke-linecap="round" stroke-linejoin="round"/>
<path d="M28 15.5L23.5 11" stroke="#ED1C24" stroke-miterlimit="10" stroke-linecap="round" stroke-linejoin="round"/>
</svg>
