<svg width="12" height="12" viewBox="0 0 12 12" fill="none" xmlns="http://www.w3.org/2000/svg">
<path d="M1.75734 7.75734C2.41085 7.10386 3.18869 6.62009 4.03737 6.32723C3.12841 5.7012 2.53125 4.65347 2.53125 3.46875C2.53125 1.55609 4.08734 0 6 0C7.91266 0 9.46875 1.55609 9.46875 3.46875C9.46875 4.65347 8.87159 5.7012 7.96261 6.32723C8.81128 6.62009 9.58912 7.10386 10.2426 7.75734C11.3759 8.89062 12 10.3973 12 12H11.0625C11.0625 9.20852 8.79148 6.9375 6 6.9375C3.20852 6.9375 0.9375 9.20852 0.9375 12H0C0 10.3973 0.624118 8.89062 1.75734 7.75734ZM6 6C7.39573 6 8.53125 4.8645 8.53125 3.46875C8.53125 2.073 7.39573 0.9375 6 0.9375C4.60427 0.9375 3.46875 2.073 3.46875 3.46875C3.46875 4.8645 4.60427 6 6 6Z" fill="white"/>
</svg>
