<svg width="13" height="13" viewBox="0 0 13 13" fill="none" xmlns="http://www.w3.org/2000/svg">
<path d="M5.93133 0.621582C3.07658 0.621582 0.753906 2.94425 0.753906 5.79901C0.753906 8.65393 3.07658 10.9764 5.93133 10.9764C8.78625 10.9764 11.1088 8.65393 11.1088 5.79901C11.1088 2.94425 8.78625 0.621582 5.93133 0.621582ZM5.93133 10.0206C3.60356 10.0206 1.70974 8.1268 1.70974 5.79903C1.70974 3.47126 3.60356 1.57742 5.93133 1.57742C8.2591 1.57742 10.1529 3.47124 10.1529 5.79901C10.1529 8.12678 8.2591 10.0206 5.93133 10.0206Z" fill="#233253"/>
<path d="M12.3703 11.5622L9.63027 8.82216C9.44356 8.63545 9.14119 8.63545 8.95448 8.82216C8.76778 9.00871 8.76778 9.31139 8.95448 9.49794L11.6945 12.238C11.7879 12.3313 11.9101 12.378 12.0324 12.378C12.1546 12.378 12.277 12.3313 12.3703 12.238C12.557 12.0514 12.557 11.7488 12.3703 11.5622Z" fill="#233253"/>
</svg>
