<svg width="22" height="22" viewBox="0 0 22 22" fill="none" xmlns="http://www.w3.org/2000/svg">
<path d="M9.30195 5H19.702C20.417 5 21.002 5.585 21.002 6.3V14.1C21.002 14.815 20.417 15.4 19.702 15.4H9.30195C8.58695 15.4 8.00195 14.815 8.00195 14.1V6.3C8.00195 5.585 8.58695 5 9.30195 5Z" stroke="#D51D25" stroke-linecap="round" stroke-linejoin="round"/>
<path d="M21.002 6.29688L14.502 10.8469L8.00195 6.29688" stroke="#D51D25" stroke-linecap="round" stroke-linejoin="round"/>
<path d="M17.6904 17.2827L17.0489 19.6766C16.9903 19.899 16.8858 20.1068 16.7422 20.2866C16.5986 20.4663 16.4191 20.6141 16.2151 20.7205C16.0111 20.8268 15.7871 20.8894 15.5575 20.9042C15.3279 20.919 15.0978 20.8857 14.8818 20.8063C12.4979 19.8816 10.3641 18.4106 8.65189 16.5115C7.05218 14.7698 5.85558 12.6972 5.14707 10.4409C4.3563 7.99791 4.15213 5.40297 4.55109 2.86634C4.59028 2.64034 4.67609 2.42497 4.80307 2.23395C4.93005 2.04293 5.09541 1.88044 5.28863 1.75683C5.48185 1.63322 5.69869 1.5512 5.92534 1.51599C6.152 1.48077 6.3835 1.49314 6.60511 1.55229L8.99896 2.19372C9.38723 2.29367 9.7259 2.5314 9.95186 2.86259C10.1778 3.19378 10.2756 3.59583 10.2271 3.99381C10.1229 4.78696 10.1087 5.58937 10.1849 6.38571C10.2157 6.70008 10.1558 7.0167 10.0122 7.29805C9.86856 7.5794 9.64731 7.81369 9.37464 7.97316L8.08971 8.71502C8.69035 11.0171 9.90121 13.1144 11.5945 14.7856L12.8795 14.0437C13.1539 13.8873 13.4674 13.8128 13.7829 13.8292C14.0983 13.8455 14.4025 13.9519 14.6594 14.1358C15.3109 14.5999 16.0129 14.9888 16.7519 15.2951C17.1249 15.4537 17.4266 15.7438 17.5996 16.1102C17.7726 16.4767 17.8049 16.894 17.6904 17.2827Z" fill="white" stroke="#D51D25" stroke-linecap="round" stroke-linejoin="round"/>
</svg>
