<svg width="42" height="50" viewBox="0 0 42 50" fill="none" xmlns="http://www.w3.org/2000/svg">
<rect x="10.3105" y="10.3164" width="21.7283" height="31.0404" fill="#69D2FF"/>
<path d="M32.0404 1H5.65606C3.01763 1 1 3.01763 1 5.65606C1 8.29449 3.01763 10.3121 5.65606 10.3121H32.0404V28.9364" stroke="#233253" stroke-miterlimit="10" stroke-linecap="round" stroke-linejoin="round"/>
<path d="M19.6242 41.3478H5.65606C3.01763 41.3478 1 39.3302 1 36.6918V5.65137" stroke="#233253" stroke-miterlimit="10" stroke-linecap="round" stroke-linejoin="round"/>
<path d="M32.0425 5.65137H5.6582" stroke="#233253" stroke-miterlimit="10" stroke-linecap="round" stroke-linejoin="round"/>
<path d="M7.20801 10.3164V41.3568" stroke="#233253" stroke-miterlimit="10" stroke-linecap="round" stroke-linejoin="round"/>
<path d="M32.7008 29.5913C35.6496 32.5401 35.6496 37.5066 32.7008 40.4554C31.9248 41.2314 31.1487 41.697 30.2175 42.1626C27.4239 43.249 24.1647 42.7834 21.8366 40.4554C18.8878 37.5066 18.8878 32.5401 21.8366 29.5913C24.7855 26.6424 29.7519 26.6424 32.7008 29.5913Z" fill="white" stroke="#233253" stroke-miterlimit="10" stroke-linecap="round" stroke-linejoin="round"/>
<path d="M24.5142 35.428L26.5835 36.9095L30.7222 32.2534" stroke="#ED1C24" stroke-miterlimit="10" stroke-linecap="round" stroke-linejoin="round"/>
<path d="M34.2517 38.1365L40.3046 43.7237C41.5462 44.9654 41.5462 46.8278 40.3046 48.0694C39.063 49.311 37.2005 49.311 35.9589 48.0694L30.5269 42.6373" stroke="#233253" stroke-miterlimit="10" stroke-linecap="round" stroke-linejoin="round"/>
</svg>
