<svg width="21" height="21" viewBox="0 0 21 21" fill="none" xmlns="http://www.w3.org/2000/svg">
<path d="M7.61816 10.7602L9.28483 12.4268L12.6182 9.09351" stroke="#233253" stroke-miterlimit="10" stroke-linecap="round" stroke-linejoin="round"/>
<path d="M10.1182 3.26025C12.0647 4.9824 14.6053 5.87906 17.2015 5.76025C17.5795 7.0461 17.6952 8.39481 17.5416 9.72624C17.3881 11.0577 16.9685 12.3446 16.3077 13.5107C15.6469 14.6767 14.7585 15.6981 13.6952 16.514C12.632 17.3299 11.4155 17.9238 10.1182 18.2603C8.82087 17.9238 7.60442 17.3299 6.54114 16.514C5.47786 15.6981 4.58945 14.6767 3.92869 13.5107C3.26792 12.3446 2.8483 11.0577 2.69475 9.72624C2.5412 8.39481 2.65686 7.0461 3.03486 5.76025C5.63113 5.87906 8.17166 4.9824 10.1182 3.26025" stroke="#233253" stroke-miterlimit="10" stroke-linecap="round" stroke-linejoin="round"/>
</svg>
