<svg width="16" height="16" viewBox="0 0 16 16" fill="none" xmlns="http://www.w3.org/2000/svg">
<path fill-rule="evenodd" clip-rule="evenodd" d="M11.6685 10.8438L15.3292 14.5044C15.557 14.7322 15.557 15.1014 15.3292 15.3292C15.2153 15.4431 15.066 15.5 14.9168 15.5C14.7676 15.5 14.6183 15.4431 14.5045 15.3292L10.8436 11.6684C9.74939 12.5784 8.34424 13.1265 6.81329 13.1265C3.33215 13.1265 0.5 10.2945 0.5 6.81348C0.5 3.33221 3.33215 0.5 6.81329 0.5C10.2944 0.5 13.1266 3.33221 13.1266 6.81348C13.1266 8.34447 12.5784 9.74957 11.6685 10.8438V10.8438ZM6.81329 1.66638C3.97528 1.66638 1.66638 3.97536 1.66638 6.81348C1.66638 9.65136 3.97528 11.9601 6.81329 11.9601C9.65131 11.9601 11.9601 9.65136 11.9601 6.81348C11.9601 3.97536 9.65131 1.66638 6.81329 1.66638V1.66638Z" stroke="#ED1C24" stroke-width="0.5"/>
</svg>
