<svg width="22" height="19" viewBox="0 0 22 19" fill="none" xmlns="http://www.w3.org/2000/svg">
<path fill-rule="evenodd" clip-rule="evenodd" d="M14.3615 9.09147C12.2339 9.09147 10.5029 7.27666 10.5029 5.04581C10.5029 2.81496 12.2339 1 14.3615 1C16.4891 1 18.2202 2.81496 18.2202 5.04581C18.2202 7.27666 16.4891 9.09147 14.3615 9.09147ZM14.3616 2.21373C12.8722 2.21373 11.6605 3.48405 11.6605 5.04581C11.6605 6.60742 12.8722 7.87774 14.3616 7.87774C15.8509 7.87774 17.0626 6.60742 17.0626 5.04581C17.0626 3.48405 15.8509 2.21373 14.3616 2.21373Z" fill="#ED1C24"/>
<path fill-rule="evenodd" clip-rule="evenodd" d="M14.3615 9.09147C12.2339 9.09147 10.5029 7.27666 10.5029 5.04581C10.5029 2.81496 12.2339 1 14.3615 1C16.4891 1 18.2202 2.81496 18.2202 5.04581C18.2202 7.27666 16.4891 9.09147 14.3615 9.09147ZM14.3616 2.21373C12.8722 2.21373 11.6605 3.48405 11.6605 5.04581C11.6605 6.60742 12.8722 7.87774 14.3616 7.87774C15.8509 7.87774 17.0626 6.60742 17.0626 5.04581C17.0626 3.48405 15.8509 2.21373 14.3616 2.21373Z" stroke="#ED1C24" stroke-width="0.5"/>
<path fill-rule="evenodd" clip-rule="evenodd" d="M20.728 17.9921H7.99481C7.67529 17.9921 7.41602 17.7202 7.41602 17.3852V14.5531C7.41602 12.434 9.06049 10.7097 11.0816 10.7097H17.6412C19.6623 10.7097 21.3068 12.434 21.3068 14.5531V17.3852C21.3068 17.7202 21.0475 17.9921 20.728 17.9921ZM8.57361 16.7784H20.1492V14.5531C20.1492 13.1032 19.024 11.9234 17.6412 11.9234H11.0816C9.69879 11.9234 8.57361 13.1032 8.57361 14.5531V16.7784Z" fill="#ED1C24"/>
<path fill-rule="evenodd" clip-rule="evenodd" d="M20.728 17.9921H7.99481C7.67529 17.9921 7.41602 17.7202 7.41602 17.3852V14.5531C7.41602 12.434 9.06049 10.7097 11.0816 10.7097H17.6412C19.6623 10.7097 21.3068 12.434 21.3068 14.5531V17.3852C21.3068 17.7202 21.0475 17.9921 20.728 17.9921V17.9921ZM8.57361 16.7784H20.1492V14.5531C20.1492 13.1032 19.024 11.9234 17.6412 11.9234H11.0816C9.69879 11.9234 8.57361 13.1032 8.57361 14.5531V16.7784Z" stroke="#ED1C24" stroke-width="0.5"/>
<path fill-rule="evenodd" clip-rule="evenodd" d="M8.13827 8.51109H1.57878C1.25929 8.51109 1 8.23922 1 7.90423C1 7.56924 1.25929 7.29736 1.57878 7.29736H8.13827C8.45776 7.29736 8.71705 7.56924 8.71705 7.90423C8.71705 8.23922 8.45776 8.51109 8.13827 8.51109Z" fill="#ED1C24"/>
<path fill-rule="evenodd" clip-rule="evenodd" d="M8.13827 8.51109H1.57878C1.25929 8.51109 1 8.23922 1 7.90423C1 7.56924 1.25929 7.29736 1.57878 7.29736H8.13827C8.45776 7.29736 8.71705 7.56924 8.71705 7.90423C8.71705 8.23922 8.45776 8.51109 8.13827 8.51109V8.51109Z" stroke="#ED1C24" stroke-width="0.5"/>
<path fill-rule="evenodd" clip-rule="evenodd" d="M5.0513 11.7477C4.90307 11.7477 4.75498 11.6885 4.64222 11.5697C4.41613 11.3325 4.41613 10.9482 4.64222 10.7111L7.32008 7.90334L4.64222 5.09556C4.41613 4.8585 4.41613 4.47417 4.64222 4.23712C4.86831 4.00006 5.23485 4.00006 5.46108 4.23712L8.54787 7.47368C8.77396 7.71073 8.77396 8.09521 8.54787 8.33226L5.46108 11.5688C5.34761 11.6885 5.19938 11.7477 5.0513 11.7477Z" fill="#ED1C24"/>
<path fill-rule="evenodd" clip-rule="evenodd" d="M5.0513 11.7477C4.90307 11.7477 4.75498 11.6885 4.64222 11.5697C4.41613 11.3325 4.41613 10.9482 4.64222 10.7111L7.32008 7.90334L4.64222 5.09556C4.41613 4.8585 4.41613 4.47417 4.64222 4.23712C4.86831 4.00006 5.23485 4.00006 5.46108 4.23712L8.54787 7.47368C8.77396 7.71073 8.77396 8.09521 8.54787 8.33226L5.46108 11.5688C5.34761 11.6885 5.19938 11.7477 5.0513 11.7477V11.7477V11.7477Z" stroke="#ED1C24" stroke-width="0.5"/>
</svg>
