<svg width="26" height="15" viewBox="0 0 26 15" fill="none" xmlns="http://www.w3.org/2000/svg">
<path d="M19.3948 4.26769C19.3948 3.29488 20.2343 2.4999 21.2614 2.4999C22.2886 2.4999 23.1281 3.29488 23.1281 4.26769C23.1281 5.23003 22.3107 6.01455 21.2946 6.03547C21.2835 6.03547 21.2725 6.03547 21.2614 6.03547C21.2504 6.03547 21.2394 6.03547 21.2283 6.03547C20.2122 6.02501 19.3948 5.24049 19.3948 4.26769ZM10.4152 3.2112C10.4152 1.87229 11.5639 0.784424 12.9777 0.784424C14.3914 0.784424 15.5401 1.87229 15.5401 3.2112C15.5401 4.50827 14.4688 5.56476 13.1213 5.63798C13.0771 5.63798 13.0219 5.63798 12.9777 5.63798C12.9335 5.63798 12.8783 5.63798 12.8341 5.63798C11.4866 5.56476 10.4152 4.50827 10.4152 3.2112ZM2.86043 4.18401C2.86043 3.2112 3.69985 2.41622 4.72704 2.41622C5.75423 2.41622 6.59365 3.2112 6.59365 4.18401C6.59365 5.14635 5.77632 5.93087 4.76017 5.95179C4.74913 5.95179 4.73808 5.95179 4.72704 5.95179C4.71599 5.95179 4.70495 5.95179 4.6939 5.95179C3.67776 5.94133 2.86043 5.15681 2.86043 4.18401ZM5.83154 10.9413H0.916504C1.11531 9.1317 2.73893 7.70911 4.6939 7.69865C4.70495 7.69865 4.71599 7.69865 4.71599 7.69865H4.73808C5.67691 7.69865 6.52738 8.03338 7.19008 8.56685C6.54947 9.21539 6.07453 10.0313 5.83154 10.9413ZM18.1247 12.6254C18.1247 13.4936 17.3736 14.2049 16.4569 14.2049H9.49849C8.58175 14.2049 7.83069 13.4936 7.83069 12.6254V12.343C7.83069 9.70702 10.0618 7.54175 12.823 7.46852C12.8672 7.46852 12.9225 7.46852 12.9777 7.46852C13.0329 7.46852 13.0771 7.46852 13.1323 7.46852C15.9046 7.54175 18.1247 9.70702 18.1247 12.343V12.6254ZM20.1349 10.9413C19.8808 10.0417 19.4169 9.23631 18.7763 8.57731C19.439 8.03338 20.3005 7.70911 21.2504 7.69865C21.2614 7.69865 21.2725 7.69865 21.2725 7.69865H21.2946C23.2606 7.70911 24.8732 9.1317 25.072 10.9413H20.1349Z" stroke="#ED1C24" stroke-width="1.3" stroke-miterlimit="10"/>
</svg>
