<svg width="22" height="22" viewBox="0 0 22 22" fill="none" xmlns="http://www.w3.org/2000/svg">
<path d="M14.2975 1.95703V7.70193H20.0424" stroke="#ED1C24" stroke-width="1.5" stroke-linecap="round" stroke-linejoin="round"/>
<path d="M20.9999 1L14.2975 7.70238" stroke="#ED1C24" stroke-width="1.5" stroke-linecap="round" stroke-linejoin="round"/>
<path d="M20.0425 16.2428V19.1152C20.0436 19.3819 19.989 19.6458 19.8822 19.8902C19.7753 20.1345 19.6187 20.3538 19.4222 20.5341C19.2257 20.7144 18.9937 20.8516 18.7411 20.937C18.4885 21.0225 18.2208 21.0542 17.9552 21.0302C15.0089 20.71 12.1787 19.7033 9.69214 18.0907C7.3787 16.6207 5.4173 14.6593 3.94725 12.3458C2.32908 9.84794 1.32206 7.00401 1.00777 4.04444C0.983845 3.77966 1.01531 3.5128 1.10017 3.26086C1.18503 3.00891 1.32142 2.77739 1.50065 2.58104C1.67989 2.38469 1.89804 2.22781 2.14123 2.1204C2.38442 2.01298 2.64731 1.95737 2.91316 1.95712H5.78561C6.25029 1.95255 6.70077 2.1171 7.05309 2.4201C7.40542 2.7231 7.63554 3.14387 7.70058 3.604C7.82182 4.52324 8.04666 5.42582 8.37082 6.29452C8.49964 6.63723 8.52752 7.00968 8.45116 7.36775C8.37479 7.72581 8.19738 8.05448 7.93995 8.31481L6.72395 9.53082C8.08698 11.9279 10.0717 13.9127 12.4688 15.2757L13.6849 14.0597C13.9452 13.8023 14.2738 13.6249 14.6319 13.5485C14.99 13.4721 15.3624 13.5 15.7051 13.6288C16.5738 13.953 17.4764 14.1778 18.3957 14.2991C18.8608 14.3647 19.2856 14.599 19.5892 14.9573C19.8929 15.3157 20.0542 15.7732 20.0425 16.2428Z" stroke="#ED1C24" stroke-width="1.5" stroke-linecap="round" stroke-linejoin="round"/>
</svg>
