<svg width="23" height="24" viewBox="0 0 23 24" fill="none" xmlns="http://www.w3.org/2000/svg">
<path d="M19.0085 4.07462C16.988 2.142 14.3526 1 11.5416 1C5.7437 1 1.08785 5.7437 1.08785 11.5416C1.08785 13.3863 1.52708 15.2311 2.49339 16.8123L1 22.2588L6.53432 20.7654C8.02771 21.6439 9.78463 22.0831 11.5416 22.0831C17.3394 22.0831 21.9953 17.3394 21.9953 11.6294C22.0831 8.73048 20.9411 6.09509 19.0085 4.07462ZM17.5151 14.2648C17.1637 14.1769 15.5825 13.2985 15.319 13.2106C14.9676 13.1228 14.7919 13.1228 14.5283 13.2985C14.3526 13.6499 13.6499 14.3526 13.562 14.6162C13.3863 14.7919 13.2106 14.7919 12.9471 14.704C12.5957 14.6162 11.5416 14.1769 10.3117 13.0349C9.3454 12.1565 8.64263 11.1023 8.46694 10.7509C8.29125 10.3996 8.46694 10.3117 8.55478 10.136C8.90617 9.69679 9.16971 9.25755 9.3454 9.08186C9.43325 8.90617 9.3454 8.64263 9.3454 8.55478C9.25756 8.46694 8.55478 6.79786 8.29124 6.18293C8.02771 5.39232 7.76417 5.48016 7.50063 5.48016C7.32494 5.48016 7.0614 5.48016 6.8857 5.48016C6.71001 5.48016 6.35863 5.56801 6.00724 5.91939C5.65586 6.27078 4.86524 7.0614 4.86524 8.64263C4.86524 10.2239 6.09509 11.8051 6.18293 11.9808C6.27078 12.1565 8.46694 15.4946 11.7173 16.9002C12.5079 17.2516 13.1228 17.4273 13.562 17.5151C14.3526 17.6908 15.0554 17.6908 15.6703 17.603C16.2853 17.5151 17.603 16.8123 17.8665 16.1096C18.0422 15.319 18.0422 14.704 18.0422 14.6162C17.9543 14.4405 17.8665 14.3526 17.5151 14.2648Z" stroke="#ED1C24" stroke-width="1.5" stroke-linecap="round" stroke-linejoin="round"/>
</svg>
